<svg width="123" height="93" viewBox="0 0 123 93" fill="none" xmlns="http://www.w3.org/2000/svg">
<path fill-rule="evenodd" clip-rule="evenodd" d="M29.53 0.166748C27.7938 0.166965 26.0799 0.557448 24.515 1.30932C22.9501 2.06119 21.5743 3.15522 20.4892 4.5105L2.8246 26.5941C-1.72765 32.2815 2.32651 40.7084 9.60664 40.7084H15.1666V81.2501C15.1666 84.3222 16.387 87.2684 18.5593 89.4407C20.7316 91.613 23.6779 92.8334 26.75 92.8334H73.0833C76.1554 92.8334 79.1017 91.613 81.274 89.4407C83.4463 87.2684 84.6666 84.3222 84.6666 81.2501V40.7084H96.25V87.0417C96.25 88.5778 96.8602 90.0509 97.9463 91.1371C99.0325 92.2232 100.506 92.8334 102.042 92.8334C103.578 92.8334 105.051 92.2232 106.137 91.1371C107.223 90.0509 107.833 88.5778 107.833 87.0417V40.7084H113.393C120.679 40.7084 124.728 32.2815 120.175 26.5941L102.511 4.51629C101.426 3.15995 100.051 2.06482 98.4857 1.31193C96.9208 0.55904 95.2066 0.16766 93.47 0.166748H29.53ZM38.3333 40.7084C36.7973 40.7084 35.3241 41.3186 34.238 42.4048C33.1518 43.4909 32.5416 44.964 32.5416 46.5001V69.6667C32.5416 71.2028 33.1518 72.6759 34.238 73.7621C35.3241 74.8482 36.7973 75.4584 38.3333 75.4584H61.5C63.036 75.4584 64.5091 74.8482 65.5953 73.7621C66.6814 72.6759 67.2916 71.2028 67.2916 69.6667V46.5001C67.2916 44.964 66.6814 43.4909 65.5953 42.4048C64.5091 41.3186 63.036 40.7084 61.5 40.7084H38.3333Z" fill="white"/>
</svg>
